<svg width="91" height="34" viewBox="0 0 91 34" fill="none" xmlns="http://www.w3.org/2000/svg">
<g clip-path="url(#clip0_2052_289)">
<path d="M41.7178 29.9518H44.0876V21.1846H41.7178V29.9518ZM41.7178 19.8174H44.0876V17.7324H41.7178V19.8174Z" fill="black"/>
<path d="M45.6143 32.8229H47.9841V28.9606H48.019C48.5243 29.7125 49.3433 30.2081 50.5978 30.2081C52.898 30.2081 54.4662 28.4137 54.4662 25.5767C54.4662 22.8423 52.9502 20.9453 50.5804 20.9453C49.3607 20.9453 48.5243 21.5093 47.9492 22.2783H47.897V21.1846H45.6143V32.8229ZM50.0926 28.2769C48.6811 28.2769 47.9318 27.2345 47.9318 25.645C47.9318 24.0728 48.5243 22.8252 50.0054 22.8252C51.4691 22.8252 52.0616 23.9873 52.0616 25.645C52.0616 27.3028 51.2949 28.2769 50.0926 28.2769Z" fill="black"/>
<path d="M59.1938 30.2081C61.4242 30.2081 62.9576 29.1485 62.9576 27.3882C62.9576 25.3374 61.3022 24.9273 59.8037 24.6197C58.5316 24.3633 57.3467 24.2949 57.3467 23.543C57.3467 22.9107 57.9566 22.5688 58.8802 22.5688C59.8908 22.5688 60.5007 22.9107 60.6052 23.8506H62.7485C62.5742 22.0903 61.2674 20.9453 58.915 20.9453C56.8763 20.9453 55.2731 21.8511 55.2731 23.748C55.2731 25.6621 56.8414 26.0894 58.4445 26.397C59.6642 26.6362 60.7969 26.7217 60.7969 27.5592C60.7969 28.1744 60.2044 28.5674 59.1589 28.5674C58.096 28.5674 57.3641 28.1231 57.2073 27.1148H55.0117C55.1512 28.9776 56.5975 30.2081 59.1938 30.2081Z" fill="black"/>
<path d="M71.9552 29.9527V21.1855H69.5853V26.2442C69.5853 27.4063 68.9058 28.2266 67.7906 28.2266C66.7799 28.2266 66.3094 27.6626 66.3094 26.6372V21.1855H63.957V27.0303C63.957 28.9443 65.0723 30.192 67.0587 30.192C68.3133 30.192 69.0103 29.7305 69.6203 28.9273H69.6725V29.9527H71.9552Z" fill="black"/>
<path d="M73.4883 29.9517H75.8582V24.8589C75.8582 23.6968 76.5029 22.9449 77.4613 22.9449C78.3325 22.9449 78.8379 23.4575 78.8379 24.4488V29.9517H81.2077V24.8589C81.2077 23.6968 81.8176 22.9449 82.8108 22.9449C83.682 22.9449 84.1874 23.4575 84.1874 24.4488V29.9517H86.5572V24.0557C86.5572 22.1416 85.4942 20.9453 83.6123 20.9453C82.4797 20.9453 81.5388 21.5264 80.9289 22.4834H80.894C80.4584 21.5605 79.5523 20.9453 78.4196 20.9453C77.1825 20.9453 76.3112 21.5605 75.8233 22.3638H75.771V21.1846H73.4883V29.9517Z" fill="black"/>
<path d="M41.7529 14.9362H44.1227V2.7168H41.7529V14.9362Z" fill="black"/>
<path d="M49.917 15.1925C52.6877 15.1925 54.587 13.1758 54.587 10.5611C54.587 7.9463 52.6877 5.92969 49.917 5.92969C47.1465 5.92969 45.2471 7.9463 45.2471 10.5611C45.2471 13.1758 47.1465 15.1925 49.917 15.1925ZM49.917 13.4151C48.4533 13.4151 47.6518 12.2701 47.6518 10.5611C47.6518 8.85206 48.4533 7.68996 49.917 7.68996C51.3633 7.68996 52.1823 8.85206 52.1823 10.5611C52.1823 12.2701 51.3633 13.4151 49.917 13.4151Z" fill="black"/>
<path d="M59.6267 17.9269C60.951 17.9269 62.1011 17.6193 62.8503 16.9356C63.5124 16.3375 63.9133 15.5001 63.9133 14.2696V6.16895H61.6306V7.09181H61.5957C61.0555 6.35693 60.2365 5.92969 59.1213 5.92969C56.8561 5.92969 55.2529 7.60451 55.2529 10.2193C55.2529 12.8682 57.2046 14.4063 59.1911 14.4063C60.3237 14.4063 61.0033 13.962 61.526 13.3809H61.5783V14.338C61.5783 15.5343 60.9336 16.1666 59.5918 16.1666C58.494 16.1666 57.9887 15.7394 57.797 15.1925H55.4446C55.6886 16.9015 57.1872 17.9269 59.6267 17.9269ZM59.5918 12.5435C58.3721 12.5435 57.5705 11.6719 57.5705 10.1851C57.5705 8.71538 58.3721 7.7925 59.5744 7.7925C61.0033 7.7925 61.7002 8.88623 61.7002 10.168C61.7002 11.4668 61.0904 12.5435 59.5918 12.5435Z" fill="black"/>
<path d="M69.6739 15.1925C72.4444 15.1925 74.3438 13.1758 74.3438 10.5611C74.3438 7.9463 72.4444 5.92969 69.6739 5.92969C66.9033 5.92969 65.0039 7.9463 65.0039 10.5611C65.0039 13.1758 66.9033 15.1925 69.6739 15.1925ZM69.6739 13.4151C68.2101 13.4151 67.4086 12.2701 67.4086 10.5611C67.4086 8.85206 68.2101 7.68996 69.6739 7.68996C71.1202 7.68996 71.9392 8.85206 71.9392 10.5611C71.9392 12.2701 71.1202 13.4151 69.6739 13.4151Z" fill="black"/>
<path d="M76.4209 11.5874H86.6667V9.58789H76.4209V11.5874Z" fill="black"/>
<path d="M87.418 19.6965C87.418 19.3032 87.743 18.9844 88.1442 18.9844H89.5959C89.9972 18.9844 90.3222 19.3032 90.3222 19.6965C90.3222 20.0897 89.9972 20.4085 89.5959 20.4085H88.1442C87.743 20.4085 87.418 20.0897 87.418 19.6965Z" fill="black"/>
<path fill-rule="evenodd" clip-rule="evenodd" d="M17.7855 0C27.3584 0 35.1188 7.61116 35.1188 17C35.1188 26.3888 27.3584 34 17.7855 34C8.21255 34 0.452148 26.3888 0.452148 17C0.452148 7.61116 8.21255 0 17.7855 0ZM17.159 1.2721C15.1816 1.54504 13.2987 3.10342 11.837 5.70979C11.413 6.46581 11.0305 7.30104 10.6971 8.20287C12.6845 7.71305 14.8678 7.42426 17.159 7.37959V1.2721ZM9.23217 8.61118C9.6467 7.33514 10.1539 6.16114 10.7391 5.11755C11.4637 3.8255 12.3236 2.70976 13.2924 1.8528C8.02404 3.35345 3.87134 7.42627 2.34129 12.5933C3.21503 11.6431 4.35266 10.7998 5.67005 10.0892C6.7341 9.51516 7.93111 9.01774 9.23217 8.61118ZM8.81582 10.0479C8.31642 11.9972 8.02198 14.1384 7.97644 16.3855H1.74919C2.02748 14.4461 3.61642 12.5994 6.2739 11.1659C7.04474 10.7501 7.89635 10.3749 8.81582 10.0479ZM9.22974 16.3855C9.28148 13.9332 9.64141 11.6309 10.237 9.59667C12.3111 9.01255 14.6586 8.65946 17.159 8.60872V11.2632C16.2262 13.6053 14.3237 15.471 11.9356 16.3855H9.22974ZM7.97644 17.6145H1.74919C2.02748 19.5539 3.61642 21.4005 6.2739 22.8341C7.04474 23.2499 7.89635 23.6251 8.81582 23.9521C8.31642 22.0028 8.02198 19.8616 7.97644 17.6145ZM10.237 24.4033C9.64141 22.3691 9.28148 20.0668 9.22974 17.6145H11.9356C14.3237 18.529 16.2263 20.3947 17.159 22.7368V25.3913C14.6586 25.3405 12.3111 24.9875 10.237 24.4033ZM9.23217 25.3888C7.93111 24.9823 6.7341 24.4848 5.67005 23.9108C4.35266 23.2002 3.21503 22.3569 2.34129 21.4067C3.87134 26.5737 8.02404 30.6466 13.2924 32.1472C12.3236 31.2902 11.4637 30.1745 10.7391 28.8824C10.1539 27.8389 9.6467 26.6648 9.23217 25.3888ZM17.159 32.7279C15.1816 32.455 13.2987 30.8966 11.837 28.2902C11.413 27.5342 11.0305 26.6989 10.6971 25.7972C12.6845 26.2869 14.8678 26.5758 17.159 26.6204V32.7279ZM22.2785 32.1472C23.2474 31.2902 24.1073 30.1745 24.8319 28.8824C25.4171 27.8389 25.9243 26.6648 26.3388 25.3888C27.6398 24.9823 28.8369 24.4848 29.901 23.9108C31.2183 23.2002 32.356 22.3569 33.2296 21.4067C31.6996 26.5737 27.5469 30.6466 22.2785 32.1472ZM24.8739 25.7972C24.5405 26.6989 24.1579 27.5342 23.7339 28.2902C22.2724 30.8966 20.3895 32.455 18.412 32.7279V26.6204C20.7032 26.5758 22.8864 26.2869 24.8739 25.7972ZM26.7551 23.9521C27.6746 23.6251 28.5262 23.2499 29.2971 22.8341C31.9545 21.4005 33.5435 19.5539 33.8218 17.6145H27.5945C27.549 19.8616 27.2545 22.0028 26.7551 23.9521ZM26.3413 17.6145C26.2896 20.0668 25.9295 22.3691 25.334 24.4033C23.2599 24.9875 20.9124 25.3405 18.412 25.3913V22.7388C19.3444 20.3958 21.2474 18.5292 23.6362 17.6145H26.3413ZM27.5945 16.3855H33.8218C33.5435 14.4461 31.9545 12.5994 29.2971 11.1659C28.5262 10.7501 27.6746 10.3749 26.7551 10.0479C27.2545 11.9972 27.549 14.1384 27.5945 16.3855ZM25.334 9.59667C25.9295 11.6309 26.2896 13.9332 26.3413 16.3855H23.6362C21.2474 15.4708 19.3444 13.6042 18.412 11.2612V8.60872C20.9124 8.65946 23.2599 9.01255 25.334 9.59667ZM26.3388 8.61118C27.6398 9.01774 28.8369 9.51516 29.901 10.0892C31.2183 10.7998 32.356 11.6431 33.2296 12.5933C31.6996 7.42627 27.5469 3.35345 22.2785 1.8528C23.2474 2.70976 24.1073 3.8255 24.8319 5.11755C25.4171 6.16114 25.9243 7.33514 26.3388 8.61118ZM18.412 1.2721C20.3895 1.54504 22.2724 3.10342 23.7339 5.70979C24.1579 6.46581 24.5405 7.30104 24.8739 8.20287C22.8864 7.71305 20.7032 7.42426 18.412 7.37959V1.2721Z" fill="black"/>
</g>
<defs>
<clipPath id="clip0_2052_289">
<rect width="91" height="34" fill="white"/>
</clipPath>
</defs>
</svg>
