<svg width="17" height="15" viewBox="0 0 17 15" fill="none" xmlns="http://www.w3.org/2000/svg">
<path fill-rule="evenodd" clip-rule="evenodd" d="M2.63701 3.93244H2.615C1.51436 3.93244 0.800781 3.21235 0.800781 2.29958C0.800781 1.36906 1.53546 0.664062 2.65811 0.664062C3.77984 0.664062 4.46957 1.36728 4.49159 2.29692C4.49159 3.20969 3.77984 3.93244 2.63701 3.93244ZM16.4004 14.5302H12.9527V9.65563C12.9527 8.37971 12.4133 7.50868 11.2274 7.50868C10.3203 7.50868 9.81584 8.09647 9.58104 8.66296C9.50351 8.84198 9.50491 9.08295 9.50636 9.33133V9.33134C9.50655 9.36506 9.50675 9.39891 9.50675 9.43277V14.5302H6.0911C6.0911 14.5302 6.13513 5.89536 6.0911 5.11045H9.50675V6.58881C9.70853 5.94242 10.8 5.01988 12.5418 5.01988C14.7027 5.01988 16.4004 6.37483 16.4004 9.29248V14.5302ZM4.23484 5.11016H1.19433V14.5299H4.23484V5.11016Z" fill="#F7F7F3"/>
</svg>
