<svg width="597" height="459" viewBox="0 0 597 459" fill="none" xmlns="http://www.w3.org/2000/svg">
<path d="M584.499 458.5L596.046 438.5L572.952 438.5L584.499 458.5ZM2.00001 150L6.55671e-06 150L6.64413e-06 152L2.00001 152L2.00001 150ZM584.5 150L586.5 150L586.5 148L584.5 148L584.5 150ZM-6.10352e-05 2.63631e-05L6.55671e-06 150L4.00001 150L3.99994 2.45607e-05L-6.10352e-05 2.63631e-05ZM2.00001 152L584.5 152L584.5 148L2.00001 148L2.00001 152ZM582.5 150L582.499 440.5L586.499 440.5L586.5 150L582.5 150Z" fill="black"/>
</svg>
