<svg width="13" height="13" viewBox="0 0 13 13" fill="none" xmlns="http://www.w3.org/2000/svg">
<path d="M13 7.18421V11.2895C12.9996 11.743 12.8192 12.1778 12.4985 12.4985C12.1778 12.8192 11.743 12.9996 11.2895 13H1.71053C1.25699 12.9996 0.822159 12.8192 0.501464 12.4985C0.180768 12.1778 0.000418483 11.743 0 11.2895V1.71053C0.000418483 1.25699 0.180768 0.822159 0.501464 0.501464C0.822159 0.180769 1.25699 0.000418541 1.71053 5.76137e-08H5.81579C5.90652 5.76137e-08 5.99354 0.0360433 6.05769 0.1002C6.12185 0.164358 6.1579 0.251373 6.1579 0.342105C6.1579 0.432837 6.12185 0.519853 6.05769 0.58401C5.99354 0.648167 5.90652 0.684211 5.81579 0.684211H1.71053C1.43842 0.684508 1.17755 0.792732 0.98514 0.98514C0.792732 1.17755 0.684508 1.43842 0.684211 1.71053V11.2895C0.684508 11.5616 0.792732 11.8225 0.98514 12.0149C1.17755 12.2073 1.43842 12.3155 1.71053 12.3158H11.2895C11.5616 12.3155 11.8225 12.2073 12.0149 12.0149C12.2073 11.8225 12.3155 11.5616 12.3158 11.2895V7.18421C12.3158 7.09348 12.3518 7.00646 12.416 6.94231C12.4801 6.87815 12.5672 6.84211 12.6579 6.84211C12.7486 6.84211 12.8356 6.87815 12.8998 6.94231C12.964 7.00646 13 7.09348 13 7.18421ZM12.6579 5.76137e-08H8.55263C8.4619 5.76137e-08 8.37488 0.0360433 8.31073 0.1002C8.24657 0.164358 8.21053 0.251373 8.21053 0.342105C8.21053 0.432837 8.24657 0.519853 8.31073 0.58401C8.37488 0.648167 8.4619 0.684211 8.55263 0.684211H11.8321L6.25814 6.25812C6.22546 6.28968 6.1994 6.32743 6.18147 6.36916C6.16354 6.4109 6.15411 6.45579 6.15371 6.50122C6.15332 6.54664 6.16197 6.59169 6.17917 6.63373C6.19637 6.67578 6.22178 6.71397 6.2539 6.7461C6.28602 6.77822 6.32422 6.80362 6.36626 6.82082C6.4083 6.83802 6.45335 6.84668 6.49878 6.84628C6.5442 6.84589 6.58909 6.83645 6.63083 6.81852C6.67257 6.80059 6.71032 6.77453 6.74188 6.74186L12.3158 1.16795V4.44737C12.3158 4.5381 12.3518 4.62512 12.416 4.68927C12.4801 4.75343 12.5672 4.78947 12.6579 4.78947C12.7486 4.78947 12.8356 4.75343 12.8998 4.68927C12.964 4.62512 13 4.5381 13 4.44737V0.342105C13 0.297172 12.9912 0.252674 12.974 0.211157C12.9568 0.169639 12.9316 0.131915 12.8999 0.100142C12.8681 0.0683696 12.8304 0.0431714 12.7888 0.0259882C12.7473 0.00880506 12.7028 -2.60264e-05 12.6579 5.76137e-08Z" fill="#F7F7F3"/>
</svg>
